<mxfile host="app.diagrams.net" modified="2022-02-18T17:06:12.936Z" agent="5.0 (Windows NT 10.0; Win64; x64) AppleWebKit/537.36 (KHTML, like Gecko) Chrome/98.0.4758.102 Safari/537.36" etag="vokqx1TwYqo3LObQ5J3T" version="16.6.0" type="github" pages="3">
  <diagram id="XvpTUE_IpspgRZA0ONza" name="pep github">
    <mxGraphModel dx="782" dy="436" grid="1" gridSize="10" guides="1" tooltips="1" connect="1" arrows="1" fold="1" page="1" pageScale="1" pageWidth="850" pageHeight="1100" math="0" shadow="0">
      <root>
        <mxCell id="0" />
        <mxCell id="1" parent="0" />
        <mxCell id="nqb2GobOk6vmv81c-OQU-1" style="edgeStyle=orthogonalEdgeStyle;rounded=0;orthogonalLoop=1;jettySize=auto;html=1;fontSize=11;" parent="1" source="nqb2GobOk6vmv81c-OQU-2" edge="1">
          <mxGeometry relative="1" as="geometry">
            <mxPoint x="150" y="105" as="targetPoint" />
          </mxGeometry>
        </mxCell>
        <mxCell id="nqb2GobOk6vmv81c-OQU-2" value="" style="points=[[0.35,0,0],[0.98,0.51,0],[1,0.71,0],[0.67,1,0],[0,0.795,0],[0,0.65,0]];verticalLabelPosition=bottom;sketch=0;html=1;verticalAlign=top;aspect=fixed;align=center;pointerEvents=1;shape=mxgraph.cisco19.user;fillColor=#005073;strokeColor=none;" parent="1" vertex="1">
          <mxGeometry x="20" y="80" width="50" height="50" as="geometry" />
        </mxCell>
        <mxCell id="nqb2GobOk6vmv81c-OQU-3" value="creates a pull request for approval" style="text;html=1;strokeColor=none;fillColor=none;align=center;verticalAlign=middle;whiteSpace=wrap;rounded=0;" parent="1" vertex="1">
          <mxGeometry x="80" y="120" width="60" height="30" as="geometry" />
        </mxCell>
        <mxCell id="nqb2GobOk6vmv81c-OQU-13" value="" style="group" parent="1" vertex="1" connectable="0">
          <mxGeometry x="150" y="41.480000000000004" width="310" height="138.99" as="geometry" />
        </mxCell>
        <mxCell id="nqb2GobOk6vmv81c-OQU-14" value="" style="rounded=0;whiteSpace=wrap;html=1;fontSize=11;" parent="nqb2GobOk6vmv81c-OQU-13" vertex="1">
          <mxGeometry y="26.490000000000002" width="310" height="112.5" as="geometry" />
        </mxCell>
        <mxCell id="nqb2GobOk6vmv81c-OQU-15" value="&lt;font style=&quot;font-size: 11px&quot;&gt;Triggers Github actions on repo push&lt;/font&gt;" style="text;html=1;strokeColor=none;fillColor=none;align=center;verticalAlign=middle;whiteSpace=wrap;rounded=0;" parent="nqb2GobOk6vmv81c-OQU-13" vertex="1">
          <mxGeometry x="121.78571428571429" y="92.5" width="66.42857142857143" height="30" as="geometry" />
        </mxCell>
        <mxCell id="nqb2GobOk6vmv81c-OQU-16" value="" style="dashed=0;outlineConnect=0;html=1;align=center;labelPosition=center;verticalLabelPosition=bottom;verticalAlign=top;shape=mxgraph.weblogos.github;fontSize=11;" parent="nqb2GobOk6vmv81c-OQU-13" vertex="1">
          <mxGeometry x="22.142857142857146" y="42.5" width="88.57142857142858" height="75" as="geometry" />
        </mxCell>
        <mxCell id="nqb2GobOk6vmv81c-OQU-17" value="Github Actions YAML" style="sketch=0;pointerEvents=1;shadow=0;dashed=0;html=1;strokeColor=none;fillColor=#505050;labelPosition=center;verticalLabelPosition=bottom;verticalAlign=top;outlineConnect=0;align=center;shape=mxgraph.office.concepts.script;fontSize=11;" parent="nqb2GobOk6vmv81c-OQU-13" vertex="1">
          <mxGeometry x="223.64285714285717" y="55.5" width="58.67857142857143" height="49" as="geometry" />
        </mxCell>
        <mxCell id="nqb2GobOk6vmv81c-OQU-18" style="edgeStyle=orthogonalEdgeStyle;rounded=0;orthogonalLoop=1;jettySize=auto;html=1;fontSize=11;" parent="nqb2GobOk6vmv81c-OQU-13" source="nqb2GobOk6vmv81c-OQU-16" target="nqb2GobOk6vmv81c-OQU-17" edge="1">
          <mxGeometry relative="1" as="geometry" />
        </mxCell>
        <mxCell id="nqb2GobOk6vmv81c-OQU-19" value="GitHub repo" style="text;html=1;strokeColor=none;fillColor=none;align=center;verticalAlign=middle;whiteSpace=wrap;rounded=0;fontSize=11;" parent="nqb2GobOk6vmv81c-OQU-13" vertex="1">
          <mxGeometry x="223.64285714285717" width="77.5" height="30" as="geometry" />
        </mxCell>
        <mxCell id="nqb2GobOk6vmv81c-OQU-20" style="edgeStyle=orthogonalEdgeStyle;shape=flexArrow;rounded=0;orthogonalLoop=1;jettySize=auto;html=1;fontSize=11;" parent="1" source="nqb2GobOk6vmv81c-OQU-14" edge="1">
          <mxGeometry relative="1" as="geometry">
            <mxPoint x="530" y="124.22000000000003" as="targetPoint" />
          </mxGeometry>
        </mxCell>
        <mxCell id="nqb2GobOk6vmv81c-OQU-5" value="" style="rounded=0;whiteSpace=wrap;html=1;" parent="1" vertex="1">
          <mxGeometry x="530" y="70" width="450" height="120.47" as="geometry" />
        </mxCell>
        <mxCell id="nqb2GobOk6vmv81c-OQU-6" value="Spring app build" style="aspect=fixed;html=1;points=[];align=center;image;fontSize=12;image=img/lib/azure2/compute/Azure_Spring_Cloud.svg;" parent="1" vertex="1">
          <mxGeometry x="570" y="86.47" width="46.75" height="44" as="geometry" />
        </mxCell>
        <mxCell id="nqb2GobOk6vmv81c-OQU-7" value="Docker &lt;br&gt;image build" style="sketch=0;aspect=fixed;html=1;points=[];align=center;image;fontSize=12;image=img/lib/mscae/Docker.svg;" parent="1" vertex="1">
          <mxGeometry x="670" y="91.47" width="59.76" height="49" as="geometry" />
        </mxCell>
        <mxCell id="nqb2GobOk6vmv81c-OQU-8" value="Push &lt;br&gt;image to ACR higher env" style="aspect=fixed;html=1;points=[];align=center;image;fontSize=12;image=img/lib/azure2/containers/Container_Registries.svg;" parent="1" vertex="1">
          <mxGeometry x="780" y="86.47" width="60.19" height="54" as="geometry" />
        </mxCell>
        <mxCell id="nqb2GobOk6vmv81c-OQU-9" value="&lt;font style=&quot;font-size: 11px&quot;&gt;Deploy to&lt;br&gt;Azure App service&lt;/font&gt;" style="aspect=fixed;html=1;points=[];align=center;image;fontSize=12;image=img/lib/azure2/app_services/App_Service_Environments.svg;" parent="1" vertex="1">
          <mxGeometry x="900" y="89.97" width="54" height="54" as="geometry" />
        </mxCell>
        <mxCell id="nqb2GobOk6vmv81c-OQU-10" style="edgeStyle=orthogonalEdgeStyle;rounded=0;orthogonalLoop=1;jettySize=auto;html=1;entryX=0.033;entryY=0.361;entryDx=0;entryDy=0;entryPerimeter=0;" parent="1" source="nqb2GobOk6vmv81c-OQU-6" target="nqb2GobOk6vmv81c-OQU-7" edge="1">
          <mxGeometry relative="1" as="geometry" />
        </mxCell>
        <mxCell id="nqb2GobOk6vmv81c-OQU-11" style="edgeStyle=orthogonalEdgeStyle;rounded=0;orthogonalLoop=1;jettySize=auto;html=1;entryX=0.01;entryY=0.481;entryDx=0;entryDy=0;entryPerimeter=0;" parent="1" source="nqb2GobOk6vmv81c-OQU-7" target="nqb2GobOk6vmv81c-OQU-8" edge="1">
          <mxGeometry relative="1" as="geometry" />
        </mxCell>
        <mxCell id="nqb2GobOk6vmv81c-OQU-12" style="edgeStyle=orthogonalEdgeStyle;rounded=0;orthogonalLoop=1;jettySize=auto;html=1;entryX=-0.025;entryY=0.503;entryDx=0;entryDy=0;entryPerimeter=0;" parent="1" source="nqb2GobOk6vmv81c-OQU-8" target="nqb2GobOk6vmv81c-OQU-9" edge="1">
          <mxGeometry relative="1" as="geometry" />
        </mxCell>
      </root>
    </mxGraphModel>
  </diagram>
  <diagram id="kQvE9VlaSaK0vqSwJ8Q1" name="peps jenkins">
    <mxGraphModel dx="782" dy="436" grid="1" gridSize="10" guides="1" tooltips="1" connect="1" arrows="1" fold="1" page="1" pageScale="1" pageWidth="850" pageHeight="1100" math="0" shadow="0">
      <root>
        <mxCell id="guVoOfKpQ_q3lsuQCdFz-0" />
        <mxCell id="guVoOfKpQ_q3lsuQCdFz-1" parent="guVoOfKpQ_q3lsuQCdFz-0" />
        <mxCell id="guVoOfKpQ_q3lsuQCdFz-2" style="edgeStyle=orthogonalEdgeStyle;rounded=0;orthogonalLoop=1;jettySize=auto;html=1;exitX=0.98;exitY=0.51;exitDx=0;exitDy=0;exitPerimeter=0;" edge="1" parent="guVoOfKpQ_q3lsuQCdFz-1" source="guVoOfKpQ_q3lsuQCdFz-3" target="guVoOfKpQ_q3lsuQCdFz-6">
          <mxGeometry relative="1" as="geometry" />
        </mxCell>
        <mxCell id="guVoOfKpQ_q3lsuQCdFz-3" value="" style="points=[[0.35,0,0],[0.98,0.51,0],[1,0.71,0],[0.67,1,0],[0,0.795,0],[0,0.65,0]];verticalLabelPosition=bottom;sketch=0;html=1;verticalAlign=top;aspect=fixed;align=center;pointerEvents=1;shape=mxgraph.cisco19.user;fillColor=#005073;strokeColor=none;" vertex="1" parent="guVoOfKpQ_q3lsuQCdFz-1">
          <mxGeometry x="70" y="80" width="50" height="50" as="geometry" />
        </mxCell>
        <mxCell id="guVoOfKpQ_q3lsuQCdFz-4" value="" style="rounded=0;whiteSpace=wrap;html=1;" vertex="1" parent="guVoOfKpQ_q3lsuQCdFz-1">
          <mxGeometry x="340" y="69.53" width="450" height="120.47" as="geometry" />
        </mxCell>
        <mxCell id="guVoOfKpQ_q3lsuQCdFz-5" style="edgeStyle=orthogonalEdgeStyle;rounded=0;orthogonalLoop=1;jettySize=auto;html=1;exitX=1;exitY=0.5;exitDx=0;exitDy=0;entryX=0;entryY=0.5;entryDx=0;entryDy=0;" edge="1" parent="guVoOfKpQ_q3lsuQCdFz-1" source="guVoOfKpQ_q3lsuQCdFz-6" target="guVoOfKpQ_q3lsuQCdFz-4">
          <mxGeometry relative="1" as="geometry" />
        </mxCell>
        <mxCell id="guVoOfKpQ_q3lsuQCdFz-6" value="Bitbucket" style="image;image=img/lib/atlassian/Bitbucket_Logo.svg;" vertex="1" parent="guVoOfKpQ_q3lsuQCdFz-1">
          <mxGeometry x="200" y="80" width="57" height="50" as="geometry" />
        </mxCell>
        <mxCell id="guVoOfKpQ_q3lsuQCdFz-7" value="" style="aspect=fixed;perimeter=ellipsePerimeter;html=1;align=center;shadow=0;dashed=0;fontColor=#4277BB;labelBackgroundColor=#ffffff;fontSize=12;spacingTop=3;image;image=img/lib/ibm/devops/devops.svg;" vertex="1" parent="guVoOfKpQ_q3lsuQCdFz-1">
          <mxGeometry x="730" y="19.53" width="50" height="50" as="geometry" />
        </mxCell>
        <mxCell id="guVoOfKpQ_q3lsuQCdFz-8" style="edgeStyle=orthogonalEdgeStyle;rounded=0;orthogonalLoop=1;jettySize=auto;html=1;entryX=0.033;entryY=0.361;entryDx=0;entryDy=0;entryPerimeter=0;" edge="1" parent="guVoOfKpQ_q3lsuQCdFz-1" source="guVoOfKpQ_q3lsuQCdFz-9" target="guVoOfKpQ_q3lsuQCdFz-11">
          <mxGeometry relative="1" as="geometry" />
        </mxCell>
        <mxCell id="guVoOfKpQ_q3lsuQCdFz-9" value="Spring app build" style="aspect=fixed;html=1;points=[];align=center;image;fontSize=12;image=img/lib/azure2/compute/Azure_Spring_Cloud.svg;" vertex="1" parent="guVoOfKpQ_q3lsuQCdFz-1">
          <mxGeometry x="380" y="86" width="46.75" height="44" as="geometry" />
        </mxCell>
        <mxCell id="guVoOfKpQ_q3lsuQCdFz-10" style="edgeStyle=orthogonalEdgeStyle;rounded=0;orthogonalLoop=1;jettySize=auto;html=1;entryX=0.01;entryY=0.481;entryDx=0;entryDy=0;entryPerimeter=0;" edge="1" parent="guVoOfKpQ_q3lsuQCdFz-1" source="guVoOfKpQ_q3lsuQCdFz-11" target="guVoOfKpQ_q3lsuQCdFz-13">
          <mxGeometry relative="1" as="geometry" />
        </mxCell>
        <mxCell id="guVoOfKpQ_q3lsuQCdFz-11" value="Docker &lt;br&gt;image build" style="sketch=0;aspect=fixed;html=1;points=[];align=center;image;fontSize=12;image=img/lib/mscae/Docker.svg;" vertex="1" parent="guVoOfKpQ_q3lsuQCdFz-1">
          <mxGeometry x="480" y="91" width="59.76" height="49" as="geometry" />
        </mxCell>
        <mxCell id="guVoOfKpQ_q3lsuQCdFz-12" style="edgeStyle=orthogonalEdgeStyle;rounded=0;orthogonalLoop=1;jettySize=auto;html=1;entryX=-0.025;entryY=0.503;entryDx=0;entryDy=0;entryPerimeter=0;" edge="1" parent="guVoOfKpQ_q3lsuQCdFz-1" source="guVoOfKpQ_q3lsuQCdFz-13" target="guVoOfKpQ_q3lsuQCdFz-14">
          <mxGeometry relative="1" as="geometry" />
        </mxCell>
        <mxCell id="guVoOfKpQ_q3lsuQCdFz-13" value="Push &lt;br&gt;image to ACR" style="aspect=fixed;html=1;points=[];align=center;image;fontSize=12;image=img/lib/azure2/containers/Container_Registries.svg;" vertex="1" parent="guVoOfKpQ_q3lsuQCdFz-1">
          <mxGeometry x="590" y="86" width="60.19" height="54" as="geometry" />
        </mxCell>
        <mxCell id="guVoOfKpQ_q3lsuQCdFz-14" value="&lt;font style=&quot;font-size: 11px&quot;&gt;Deploy to&lt;br&gt;Azure App service&lt;/font&gt;" style="aspect=fixed;html=1;points=[];align=center;image;fontSize=12;image=img/lib/azure2/app_services/App_Service_Environments.svg;" vertex="1" parent="guVoOfKpQ_q3lsuQCdFz-1">
          <mxGeometry x="710" y="89.5" width="54" height="54" as="geometry" />
        </mxCell>
        <mxCell id="guVoOfKpQ_q3lsuQCdFz-15" value="creates a pull request for approval" style="text;html=1;strokeColor=none;fillColor=none;align=center;verticalAlign=middle;whiteSpace=wrap;rounded=0;" vertex="1" parent="guVoOfKpQ_q3lsuQCdFz-1">
          <mxGeometry x="120" y="120" width="60" height="30" as="geometry" />
        </mxCell>
        <mxCell id="guVoOfKpQ_q3lsuQCdFz-16" value="Triggers jenkins job on repo push&lt;br&gt;" style="text;html=1;strokeColor=none;fillColor=none;align=center;verticalAlign=middle;whiteSpace=wrap;rounded=0;" vertex="1" parent="guVoOfKpQ_q3lsuQCdFz-1">
          <mxGeometry x="260" y="143.5" width="60" height="30" as="geometry" />
        </mxCell>
        <mxCell id="guVoOfKpQ_q3lsuQCdFz-17" value="Jenkins node on&amp;nbsp;usazrklxn11083" style="text;html=1;strokeColor=none;fillColor=none;align=center;verticalAlign=middle;whiteSpace=wrap;rounded=0;fontSize=11;" vertex="1" parent="guVoOfKpQ_q3lsuQCdFz-1">
          <mxGeometry x="620" y="40" width="110" height="30" as="geometry" />
        </mxCell>
      </root>
    </mxGraphModel>
  </diagram>
  <diagram id="c0zXQBnB2mM_Hc8hhb6V" name="peps vm">
    <mxGraphModel dx="782" dy="436" grid="1" gridSize="10" guides="1" tooltips="1" connect="1" arrows="1" fold="1" page="1" pageScale="1" pageWidth="850" pageHeight="1100" math="0" shadow="0">
      <root>
        <mxCell id="Jz4SNpk94HaZZg3jzQ6S-0" />
        <mxCell id="Jz4SNpk94HaZZg3jzQ6S-1" parent="Jz4SNpk94HaZZg3jzQ6S-0" />
        <mxCell id="Jz4SNpk94HaZZg3jzQ6S-2" style="edgeStyle=orthogonalEdgeStyle;rounded=0;orthogonalLoop=1;jettySize=auto;html=1;exitX=0.98;exitY=0.51;exitDx=0;exitDy=0;exitPerimeter=0;" edge="1" parent="Jz4SNpk94HaZZg3jzQ6S-1" source="Jz4SNpk94HaZZg3jzQ6S-3" target="Jz4SNpk94HaZZg3jzQ6S-5">
          <mxGeometry relative="1" as="geometry" />
        </mxCell>
        <mxCell id="Jz4SNpk94HaZZg3jzQ6S-3" value="" style="points=[[0.35,0,0],[0.98,0.51,0],[1,0.71,0],[0.67,1,0],[0,0.795,0],[0,0.65,0]];verticalLabelPosition=bottom;sketch=0;html=1;verticalAlign=top;aspect=fixed;align=center;pointerEvents=1;shape=mxgraph.cisco19.user;fillColor=#005073;strokeColor=none;" vertex="1" parent="Jz4SNpk94HaZZg3jzQ6S-1">
          <mxGeometry x="70" y="80" width="50" height="50" as="geometry" />
        </mxCell>
        <mxCell id="Jz4SNpk94HaZZg3jzQ6S-4" style="edgeStyle=orthogonalEdgeStyle;rounded=0;orthogonalLoop=1;jettySize=auto;html=1;entryX=0;entryY=0.5;entryDx=0;entryDy=0;fontSize=11;" edge="1" parent="Jz4SNpk94HaZZg3jzQ6S-1" source="Jz4SNpk94HaZZg3jzQ6S-5" target="Jz4SNpk94HaZZg3jzQ6S-14">
          <mxGeometry relative="1" as="geometry" />
        </mxCell>
        <mxCell id="Jz4SNpk94HaZZg3jzQ6S-5" value="Bitbucket" style="image;image=img/lib/atlassian/Bitbucket_Logo.svg;" vertex="1" parent="Jz4SNpk94HaZZg3jzQ6S-1">
          <mxGeometry x="200" y="80" width="60" height="50" as="geometry" />
        </mxCell>
        <mxCell id="Jz4SNpk94HaZZg3jzQ6S-6" value="creates a pull request for approval" style="text;html=1;strokeColor=none;fillColor=none;align=center;verticalAlign=middle;whiteSpace=wrap;rounded=0;" vertex="1" parent="Jz4SNpk94HaZZg3jzQ6S-1">
          <mxGeometry x="120" y="120" width="60" height="30" as="geometry" />
        </mxCell>
        <mxCell id="Jz4SNpk94HaZZg3jzQ6S-7" value="" style="group" vertex="1" connectable="0" parent="Jz4SNpk94HaZZg3jzQ6S-1">
          <mxGeometry x="160" y="193" width="530" height="90" as="geometry" />
        </mxCell>
        <mxCell id="Jz4SNpk94HaZZg3jzQ6S-8" value="" style="rounded=0;whiteSpace=wrap;html=1;fontSize=11;" vertex="1" parent="Jz4SNpk94HaZZg3jzQ6S-7">
          <mxGeometry width="530" height="90" as="geometry" />
        </mxCell>
        <mxCell id="Jz4SNpk94HaZZg3jzQ6S-9" value="DEV" style="verticalLabelPosition=bottom;html=1;verticalAlign=top;align=center;strokeColor=none;fillColor=#00BEF2;shape=mxgraph.azure.virtual_machine;fontSize=11;" vertex="1" parent="Jz4SNpk94HaZZg3jzQ6S-7">
          <mxGeometry x="28.5" y="15" width="80" height="50" as="geometry" />
        </mxCell>
        <mxCell id="Jz4SNpk94HaZZg3jzQ6S-10" value="QA" style="verticalLabelPosition=bottom;html=1;verticalAlign=top;align=center;strokeColor=none;fillColor=#00BEF2;shape=mxgraph.azure.virtual_machine;fontSize=11;" vertex="1" parent="Jz4SNpk94HaZZg3jzQ6S-7">
          <mxGeometry x="140" y="15" width="80" height="50" as="geometry" />
        </mxCell>
        <mxCell id="Jz4SNpk94HaZZg3jzQ6S-11" value="UAT" style="verticalLabelPosition=bottom;html=1;verticalAlign=top;align=center;strokeColor=none;fillColor=#00BEF2;shape=mxgraph.azure.virtual_machine;fontSize=11;" vertex="1" parent="Jz4SNpk94HaZZg3jzQ6S-7">
          <mxGeometry x="265" y="15" width="80" height="50" as="geometry" />
        </mxCell>
        <mxCell id="Jz4SNpk94HaZZg3jzQ6S-12" value="PROD" style="verticalLabelPosition=bottom;html=1;verticalAlign=top;align=center;strokeColor=none;fillColor=#00BEF2;shape=mxgraph.azure.virtual_machine;fontSize=11;" vertex="1" parent="Jz4SNpk94HaZZg3jzQ6S-7">
          <mxGeometry x="400" y="15" width="80" height="50" as="geometry" />
        </mxCell>
        <mxCell id="Jz4SNpk94HaZZg3jzQ6S-13" style="edgeStyle=orthogonalEdgeStyle;rounded=0;orthogonalLoop=1;jettySize=auto;html=1;fontSize=11;entryX=0.45;entryY=0;entryDx=0;entryDy=0;entryPerimeter=0;" edge="1" parent="Jz4SNpk94HaZZg3jzQ6S-1" source="Jz4SNpk94HaZZg3jzQ6S-14" target="Jz4SNpk94HaZZg3jzQ6S-8">
          <mxGeometry relative="1" as="geometry">
            <mxPoint x="398.5" y="170" as="targetPoint" />
          </mxGeometry>
        </mxCell>
        <mxCell id="Jz4SNpk94HaZZg3jzQ6S-14" value="" style="aspect=fixed;perimeter=ellipsePerimeter;html=1;align=center;shadow=0;dashed=0;fontColor=#4277BB;labelBackgroundColor=#ffffff;fontSize=12;spacingTop=3;image;image=img/lib/ibm/devops/build_test.svg;" vertex="1" parent="Jz4SNpk94HaZZg3jzQ6S-1">
          <mxGeometry x="366" y="75" width="65" height="65" as="geometry" />
        </mxCell>
        <mxCell id="Jz4SNpk94HaZZg3jzQ6S-15" value="Maven Application build" style="text;html=1;align=center;verticalAlign=middle;resizable=0;points=[];autosize=1;strokeColor=none;fillColor=none;fontSize=11;" vertex="1" parent="Jz4SNpk94HaZZg3jzQ6S-1">
          <mxGeometry x="431" y="97.5" width="130" height="20" as="geometry" />
        </mxCell>
        <mxCell id="Jz4SNpk94HaZZg3jzQ6S-16" value="&lt;font style=&quot;font-size: 11px&quot;&gt;Manually copy application jar to various vm&lt;/font&gt;" style="text;html=1;strokeColor=none;fillColor=none;align=center;verticalAlign=middle;whiteSpace=wrap;rounded=0;fontSize=11;" vertex="1" parent="Jz4SNpk94HaZZg3jzQ6S-1">
          <mxGeometry x="410" y="150" width="90" height="30" as="geometry" />
        </mxCell>
        <mxCell id="Jz4SNpk94HaZZg3jzQ6S-17" value="manually checkout code in local machine for build" style="text;html=1;strokeColor=none;fillColor=none;align=center;verticalAlign=middle;whiteSpace=wrap;rounded=0;fontSize=11;" vertex="1" parent="Jz4SNpk94HaZZg3jzQ6S-1">
          <mxGeometry x="270" y="117.5" width="90" height="30" as="geometry" />
        </mxCell>
      </root>
    </mxGraphModel>
  </diagram>
</mxfile>
